<?xml version="1.0" encoding="utf-8"?><svg viewBox="0 0 24 24" xmlns="http://www.w3.org/2000/svg" xmlns:xlink="http://www.w3.org/1999/xlink"><style>:root>svg{display:none}:root>svg:target{display:block}</style><svg fill="none" viewBox="0 0 20 20" id="discord" xmlns="http://www.w3.org/2000/svg"><g clip-path="url(#aa)"><path d="m15.333 18-.434.505c.126.109.289.166.456.16L15.333 18Zm-1.421-2.283a.667.667 0 0 0-1.047.827l1.047-.827Zm.53-.546-.231-.624a.763.763 0 0 0-.027.009l.259.615Zm-2.317.688-.112-.659-.01.001.122.658Zm-4.138-.016-.127.653.004.001.123-.654ZM4.47 14.612l-.371.553c.014.01.029.02.044.028l.327-.581Zm-.144-.08.369-.555a.679.679 0 0 0-.072-.041l-.297.596Zm-.064-.048.47-.472a.672.672 0 0 0-.146-.11l-.324.582Zm2.872 2.027a.667.667 0 0 0-1.047-.827l1.047.827ZM4.667 18l-.022.667a.667.667 0 0 0 .463-.167l-.441-.5Zm-4-3.004H0c0 .036.002.071.008.107l.659-.107ZM2.968 3.679l-.4-.534a.667.667 0 0 0-.224.3l.624.234ZM7.458 2l.665-.063a.667.667 0 0 0-.65-.604L7.46 2Zm-.503 1.741a.667.667 0 1 0 1.328-.126l-1.328.126Zm4.701-.084a.667.667 0 0 0 1.323.17l-1.323-.17ZM12.541 2l-.014-.667a.667.667 0 0 0-.647.582l.661.085Zm4.491 1.679.624-.234a.667.667 0 0 0-.224-.3l-.4.534Zm2.301 11.317.659.107a.669.669 0 0 0 .008-.107h-.667ZM8.641 11.733l-.666-.01v.01h.666ZM15.333 18l.435-.505-.003-.003a28.311 28.311 0 0 1-.773-.69c-.433-.398-.88-.83-1.08-1.085l-1.047.827c.278.352.804.853 1.224 1.24.26.24.524.475.791.707l.013.01.004.003.436-.504Zm.582-4.328a8.506 8.506 0 0 1-1.704.875l.464 1.249a9.798 9.798 0 0 0 1.973-1.01l-.733-1.114Zm-1.73.884a9.842 9.842 0 0 1-2.172.645l.224 1.315a11.182 11.182 0 0 0 2.464-.73l-.516-1.23Zm-2.182.647a10.528 10.528 0 0 1-3.894-.016l-.245 1.31a11.86 11.86 0 0 0 4.384.016l-.245-1.31Zm-3.89-.015c-.762-.15-1.51-.368-2.233-.653l-.485 1.241c.682.267 1.506.536 2.465.72l.253-1.308Zm-2.233-.653a8.718 8.718 0 0 1-1.084-.504l-.652 1.162c.435.244.864.432 1.25.583l.486-1.241Zm-1.04-.478a1.076 1.076 0 0 0-.144-.08c-.027-.013-.015-.01 0 0l-.74 1.11c.046.03.094.057.144.081.028.013.016.01 0-.003l.74-1.108Zm-.216-.121c.04.02.077.046.11.077l-.943.943c.03.03.108.107.237.173l.596-1.193Zm-.037-.035a6.236 6.236 0 0 1-.374-.224l-.014-.01-.384.546-.382.546.002.001.002.003.01.005.028.019.1.065c.085.053.208.128.364.215l.648-1.166Zm1.501 1.784c-.203.258-.652.7-1.084 1.106-.236.22-.476.439-.717.654l-.046.042-.013.01-.001.003h-.002l.442.5.441.5.001-.001.004-.003.014-.012.048-.043c.249-.223.495-.449.74-.677.42-.395.944-.903 1.22-1.253l-1.047-.826Zm-1.4 1.648c-1.555-.049-2.37-.694-2.813-1.28a3.19 3.19 0 0 1-.551-1.168v.003l-.657.108c-.659.107-.659.105-.658.107v.008c.01.057.023.113.038.169.15.57.409 1.106.764 1.577.673.89 1.857 1.747 3.834 1.81l.043-1.334Zm-3.355-2.337c0-2.49.56-5.253 1.13-7.419a47.268 47.268 0 0 1 1.034-3.402l.09-.248.005-.014-.624-.234-.625-.234-.002.006-.005.014-.096.267a48.597 48.597 0 0 0-1.067 3.505C.591 9.444 0 12.337 0 14.996h1.333ZM3.368 4.212a7.927 7.927 0 0 1 2.867-1.373 6.352 6.352 0 0 1 1.212-.172L7.459 2l.014-.667H7.34a5.288 5.288 0 0 0-.32.022c-.371.036-.739.098-1.1.188a9.25 9.25 0 0 0-3.351 1.6l.8 1.069Zm3.427-2.15.16 1.68 1.328-.127-.16-1.678-1.328.126Zm6.184 1.765.224-1.742-1.323-.17-.224 1.742 1.323.17ZM12.54 2l.014.667h-.002a.66.66 0 0 1 .066 0 6.171 6.171 0 0 1 1.147.173 7.92 7.92 0 0 1 2.866 1.372l.8-1.067a9.249 9.249 0 0 0-3.35-1.6 7.677 7.677 0 0 0-1.1-.189c-.15-.014-.3-.021-.45-.023h-.005L12.54 2Zm4.491 1.679-.625.232.001.004.005.012.018.049.07.199c.388 1.12.734 2.256 1.036 3.402.571 2.166 1.13 4.93 1.13 7.419H20c0-2.659-.592-5.552-1.173-7.759a48.721 48.721 0 0 0-1.143-3.716l-.02-.056-.005-.013-.002-.005-.625.232Zm2.301 11.317-.657-.107v-.004l-.003.011-.013.063c-.016.06-.04.15-.081.262a3.198 3.198 0 0 1-.454.832c-.442.586-1.258 1.231-2.813 1.28l.043 1.334c1.977-.063 3.16-.92 3.834-1.808a4.526 4.526 0 0 0 .764-1.579c.013-.052.025-.104.035-.157l.003-.014v-.005c0-.001 0-.003-.658-.108ZM7.012 9.293c-1.336 0-2.297 1.156-2.297 2.44h1.333c0-.664.476-1.106.964-1.106V9.293Zm-2.297 2.44c0 1.29.981 2.44 2.297 2.44V12.84c-.476 0-.964-.445-.964-1.107H4.715Zm2.297 2.44c1.333 0 2.296-1.154 2.296-2.44H7.975c0 .667-.476 1.107-.963 1.107v1.333Zm2.295-2.426c.021-1.304-.97-2.454-2.295-2.454l-.001 1.335c.496 0 .973.45.962 1.096l1.334.023Zm3.537-2.454c-1.336.002-2.297 1.158-2.297 2.442h1.333c0-.664.476-1.107.964-1.107V9.293Zm-2.297 2.443c0 1.29.981 2.44 2.297 2.44v-1.333c-.476 0-.964-.446-.964-1.107h-1.333Zm2.297 2.44c1.333 0 2.296-1.155 2.296-2.44h-1.333c0 .667-.476 1.107-.963 1.107v1.333Zm2.296-2.44c0-1.284-.961-2.44-2.296-2.44v1.332c.487 0 .963.444.963 1.108h1.333ZM4.987 5.92c1.924-1.05 3.492-1.539 5.017-1.54 1.527 0 3.09.487 5.01 1.539l.64-1.168c-2.029-1.114-3.82-1.706-5.65-1.704-1.83 0-3.623.593-5.655 1.702l.638 1.171Z" fill="#000"/></g><defs><clipPath id="aa"><path fill="#fff" d="M0 0h20v20H0z"/></clipPath></defs></svg><svg viewBox="0 0 24 24" id="shit" xmlns="http://www.w3.org/2000/svg"><g clip-path="url(#ba)"><path d="M15.859 9.363ZM15.813 9.361c-.009 0-.008 0 0 0ZM20.632 15.789c.611-.682.993-1.575.993-2.563 0-3.134-2.703-3.863-2.703-3.863s2.615-5.407-6.565-5.407c-3.528 0 0-3.862 0-3.862s-5.52.76-7.724 3.862c-1.794 2.525 0 5.407 0 5.407s-3.09.801-3.09 3.863c0 .987.383 1.88.994 2.563a3.854 3.854 0 0 0-2.539 3.616 3.861 3.861 0 0 0 3.862 3.861l15.448.714c3.085.127 3.862-2.442 3.862-4.575a3.853 3.853 0 0 0-2.538-3.616ZM5.256 5.851c.868-2.512 4.64-3.093 4.64-3.093s-.381 2.07 3.233 2.362c1.685.136 2.73.786 3.152 1.567.621 1.148.014 2.7-.875 2.674l-9.952-.005s-.816-1.713-.198-3.505Zm.353 5.105 12.466-.781c1.386-.232 2.528 1.2 2.528 2.48s-1.197 2.494-2.477 2.494L6.17 14.781c-1.28 0-2.744-.562-2.744-1.84 0-1.28.918-1.894 2.183-1.985Zm12.625 11.075-14.469.394c-1.722.084-2.656-1.05-2.656-2.388 0-1.34 1.245-2.473 2.543-2.473l13.5-.978c2.16-.18 3.614.808 3.614 2.352 0 1.754-1.008 2.967-2.532 3.093Z"/></g><defs><clipPath id="ba"><path fill="#fff" d="M0 0h24v24H0z"/></clipPath></defs></svg><svg fill="none" viewBox="0 0 24 24" id="telegram" xmlns="http://www.w3.org/2000/svg"><path fill-rule="evenodd" clip-rule="evenodd" d="M5.788 14.02a.747.747 0 0 0 .132.031c.283.667.564 1.334.844 2.002.503 1.202 1.01 2.44 1.121 2.796.139.438.285.736.445.94.083.104.178.196.29.266a1.189 1.189 0 0 0 .981.097c.107-.037.21-.087.304-.15L9.91 20l2.826-1.762 3.265 2.502c.048.037.1.068.156.093.392.17.772.23 1.13.182.356-.05.639-.199.85-.368.242-.195.436-.445.564-.728l.009-.022.003-.008.002-.004v-.002l.001-.001a.752.752 0 0 0 .04-.133l2.98-15.025a.753.753 0 0 0 .014-.146c0-.44-.166-.859-.555-1.112-.334-.217-.705-.227-.94-.209-.252.02-.486.082-.643.132-.088.028-.175.06-.26.094l-.011.005-16.714 6.556-.002.001a2.521 2.521 0 0 0-.547.281c-.227.155-.75.581-.661 1.285.07.56.454.905.689 1.071.128.091.25.156.34.199.04.02.126.054.163.07l.01.003 3.169 1.066Zm14.138-9.152h-.002a.819.819 0 0 1-.026.011L3.164 11.444a.81.81 0 0 1-.026.01l-.01.003a1.1 1.1 0 0 0-.09.04.86.86 0 0 0 .086.043l3.142 1.058c.056.019.11.044.16.076l10.377-6.075.01-.005a1.998 1.998 0 0 1 .441-.199c.09-.028.357-.107.645-.014a.854.854 0 0 1 .588.689.84.84 0 0 1 .003.424c-.07.275-.262.489-.437.653-.15.14-2.096 2.016-4.015 3.868l-2.613 2.52-.465.45 5.872 4.502c.08.033.165.047.251.04a.23.23 0 0 0 .117-.052.495.495 0 0 0 .103-.12l.002-.001 2.89-14.573c-.091.022-.18.05-.267.086l-.002.001Zm-8.461 12.394-1.172-.898-.284 1.805 1.456-.907Zm-2.247-2.68 1.165-1.125 2.613-2.522.973-.938-6.52 3.817.035.082c.411.971.818 1.945 1.22 2.92l.283-1.8a.744.744 0 0 1 .231-.434Z" fill="#000"/></svg><svg fill="none" viewBox="0 0 20 20" id="twitter" xmlns="http://www.w3.org/2000/svg"><g clip-path="url(#da)"><mask id="db" style="mask-type:luminance" maskUnits="userSpaceOnUse" x="0" y="0" width="20" height="20"><path d="M0 0h20v20H0V0Z" fill="#fff"/></mask><g mask="url(#db)"><path d="M15.75.938h3.067l-6.7 7.677L20 19.063h-6.171L8.99 12.728l-5.528 6.335H.393l7.166-8.214L0 .939h6.329l4.365 5.79L15.75.937Zm-1.079 16.285h1.7L5.4 2.682H3.577l11.094 14.541Z" fill="#000"/></g></g><defs><clipPath id="da"><path fill="#fff" d="M0 0h20v20H0z"/></clipPath></defs></svg><svg fill="none" viewBox="0 0 24 24" id="youtube" xmlns="http://www.w3.org/2000/svg"><path d="M12 20.5c1.81 0 3.545-.179 5.153-.507 2.01-.41 3.014-.614 3.93-1.792.917-1.179.917-2.532.917-5.238v-1.926c0-2.706 0-4.06-.917-5.238-.916-1.178-1.92-1.383-3.93-1.792A25.998 25.998 0 0 0 12 3.5c-1.81 0-3.545.179-5.153.507-2.01.41-3.014.614-3.93 1.792C2 6.978 2 8.331 2 11.037v1.926c0 2.706 0 4.06.917 5.238.916 1.178 1.92 1.383 3.93 1.792 1.608.328 3.343.507 5.153.507Z" stroke="#000" stroke-width="1.5" stroke-linecap="round" stroke-linejoin="round"/><path d="M15.962 12.313c-.148.606-.938 1.04-2.517 1.911-1.718.947-2.577 1.42-3.272 1.237a1.7 1.7 0 0 1-.635-.317C9 14.709 9 13.806 9 12s0-2.709.538-3.144c.182-.147.4-.256.635-.317.695-.183 1.554.29 3.272 1.237 1.58.87 2.369 1.305 2.517 1.911.05.206.05.42 0 .626Z" stroke="#000" stroke-width="1.5" stroke-linecap="round" stroke-linejoin="round"/></svg></svg>